<?xml version="1.0" encoding="UTF-8"?>
<svg version="1.1" xmlns="http://www.w3.org/2000/svg" width="1244" height="1593">
<path d="M0 0 C6.78524794 5.67274791 11.64962983 12.26157712 13.33203125 21.0859375 C14.24317197 32.10924653 12.75170668 40.2875483 5.64453125 48.8984375 C-0.19395564 55.06431618 -6.75599984 58.75847291 -15.2421875 59.32421875 C-23.18593894 59.5374544 -29.76211263 59.49604274 -36.66796875 55.0859375 C-37.34730469 54.65410156 -38.02664063 54.22226563 -38.7265625 53.77734375 C-43.41016814 50.60153872 -43.41016814 50.60153872 -44.66796875 48.0859375 C-49.68058386 48.64289473 -53.37043737 50.97430192 -57.60546875 53.5234375 C-58.35618652 53.97227295 -59.1069043 54.4211084 -59.88037109 54.88354492 C-79.80489887 66.95422445 -97.15497139 81.84904275 -111.66796875 100.0859375 C-112.72177734 101.39111328 -112.72177734 101.39111328 -113.796875 102.72265625 C-114.75400391 103.92341797 -114.75400391 103.92341797 -115.73046875 105.1484375 C-116.29894531 105.86128906 -116.86742187 106.57414062 -117.453125 107.30859375 C-118.85606661 109.00231929 -118.85606661 109.00231929 -118.66796875 111.0859375 C-117.44207031 111.45203125 -116.21617187 111.818125 -114.953125 112.1953125 C-81.59328093 122.53207316 -52.67936781 139.86041574 -27.66796875 164.0859375 C-26.848125 164.86582031 -26.02828125 165.64570313 -25.18359375 166.44921875 C11.24621069 201.81125306 33.2150789 254.37797322 34.53515625 304.93359375 C35.29052706 364.88694178 14.294672 420.91050366 -27.66796875 464.0859375 C-29.53739834 465.85779769 -31.44371862 467.54501307 -33.41796875 469.19921875 C-35.09109009 470.60220071 -36.73224777 472.04347924 -38.35546875 473.50390625 C-57.02781086 490.15877691 -80.22699574 503.41529802 -103.66796875 512.0859375 C-103.00796875 515.0559375 -102.34796875 518.0259375 -101.66796875 521.0859375 C-100.84941406 520.90417969 -100.03085937 520.72242188 -99.1875 520.53515625 C-79.22170158 516.43259493 -59.02075942 514.80567766 -38.66796875 514.7734375 C-37.96021301 514.76994293 -37.25245728 514.76644836 -36.52325439 514.7628479 C-28.29989484 514.74020821 -20.4161125 515.21464186 -12.32763672 516.81811523 C-8.7302112 517.18036746 -6.92613232 516.16378579 -3.94140625 514.3125 C4.42595363 509.7981512 16.00342379 507.5150937 25.33203125 509.0859375 C28.43042265 510.30799065 30.77086766 511.978651 33.33203125 514.0859375 C33.96367188 514.54742188 34.5953125 515.00890625 35.24609375 515.484375 C41.96445111 520.75734871 46.79923622 527.92449289 51.33203125 535.0859375 C51.33203125 535.7459375 51.33203125 536.4059375 51.33203125 537.0859375 C52.36094482 536.78953369 53.3898584 536.49312988 54.44995117 536.18774414 C66.05529976 532.8836578 77.73904397 530.0246186 89.48474121 527.26733398 C133.45634733 516.91527806 177.8373273 506.10474805 220.01953125 489.69140625 C222.68483288 488.65663528 225.08677883 487.91131936 227.89453125 487.26171875 C233.59225964 485.77187906 236.29580652 483.47389485 239.3984375 478.5546875 C242.67979597 472.87850584 245.52099438 467.00523557 248.33203125 461.0859375 C249.11896148 459.48722992 249.90787099 457.8894943 250.69921875 456.29296875 C252.9995316 451.59712974 255.17181554 446.84747461 257.33203125 442.0859375 C257.72648437 441.22919434 258.1209375 440.37245117 258.52734375 439.48974609 C278.31418579 396.40825315 293.33754024 351.61318364 306.33203125 306.0859375 C306.70247559 304.87204346 307.07291992 303.65814941 307.45458984 302.4074707 C308.50230203 299.01396071 308.50230203 299.01396071 308.33203125 295.0859375 C306.92058688 293.52561264 306.92058688 293.52561264 304.95703125 292.1484375 C286.91821141 277.10546406 278.38358553 253.44866781 275.609375 230.7265625 C273.54903617 203.68098797 273.54903617 203.68098797 279.89453125 195.0234375 C292.21695922 182.47281642 314.96795096 175.31039246 332.20703125 174.7734375 C337.19199378 174.82614858 341.38244534 175.94950163 345.33203125 179.0859375 C347.4102262 182.36810346 347.53707574 184.86711135 347.421875 188.70703125 C347.39971924 189.80176758 347.37756348 190.89650391 347.35473633 192.02441406 C347.32661865 193.1790918 347.29850098 194.33376953 347.26953125 195.5234375 C347.12649383 207.03913513 347.23098942 217.91753444 353.33203125 228.0859375 C359.96941656 224.76724485 364.96227057 220.15829605 370.33203125 215.0859375 C371.46511719 214.08433594 371.46511719 214.08433594 372.62109375 213.0625 C382.57145996 203.88566049 388.88990123 191.58556406 394.64477539 179.48999023 C399.51187598 169.29937435 399.51187598 169.29937435 404.33203125 166.0859375 C411.60560214 164.80814802 417.27706074 166.27605171 423.5078125 170.0625 C439.33114166 181.39926971 455.31080608 199.33623963 458.67578125 219.10546875 C460.07902912 238.01423386 444.6180806 259.18772681 433.08203125 272.7265625 C430.87538071 275.22436832 428.62170111 277.66417131 426.33203125 280.0859375 C425.6359375 280.83488281 424.93984375 281.58382813 424.22265625 282.35546875 C409.54320084 297.65103269 389.52827898 310.63113908 368.60717773 315.16040039 C367.80432846 315.33527481 367.00147919 315.51014923 366.17430115 315.69032288 C365.56635208 315.8208757 364.95840302 315.95142853 364.33203125 316.0859375 C364.13101807 317.10905029 363.93000488 318.13216309 363.72290039 319.1862793 C361.01350872 332.40994752 357.01719803 345.09843718 352.76953125 357.8984375 C352.23539108 359.51957458 352.23539108 359.51957458 351.69046021 361.17346191 C346.03019549 378.34194428 340.04959079 395.29986798 333.33203125 412.0859375 C332.77095715 413.50493571 332.21060783 414.92422065 331.65087891 416.34375 C324.93475414 433.36144754 317.97356973 450.24512327 310.39453125 466.8984375 C309.94599792 467.88547668 309.94599792 467.88547668 309.48840332 468.89245605 C305.54843081 477.53531063 301.39605258 486.05886159 297.11938477 494.53979492 C295.74727139 497.26209334 294.38782868 499.98887611 293.046875 502.7265625 C291.48450741 505.91239351 289.88439201 509.07756125 288.26708984 512.23583984 C287.38459352 513.98193832 286.53871721 515.74640627 285.6953125 517.51171875 C279.22422778 530.093513 266.58567635 534.20192792 253.95703125 539.0859375 C253.26251862 539.35673126 252.56800598 539.62752502 251.85244751 539.90652466 C200.56006413 559.82022377 147.10951714 573.09536627 93.609375 585.5390625 C92.62826752 585.76860626 91.64716003 585.99815002 90.63632202 586.23464966 C84.23213057 587.71148885 77.80778614 588.96476408 71.33203125 590.0859375 C71.66203125 590.7459375 71.99203125 591.4059375 72.33203125 592.0859375 C74.50949741 624.61926142 74.50949741 624.61926142 66.58203125 635.4609375 C61.4003918 640.74373694 54.06203736 643.31424901 47.33203125 646.0859375 C48.55433963 653.28223194 50.05660103 660.38396327 51.69213867 667.49682617 C58.98051751 699.30953964 63.45001985 731.5925456 66.33203125 764.0859375 C66.39261719 764.75941223 66.45320312 765.43288696 66.515625 766.12677002 C70.03138124 805.71198788 69.87637372 846.32162794 66.515625 885.90844727 C66.31838716 888.24776153 66.12962567 890.58767798 65.94140625 892.92773438 C62.4219928 936.17991709 56.3809739 979.08330988 44.55297852 1020.90771484 C44.27639404 1021.88691895 43.99980957 1022.86612305 43.71484375 1023.875 C43.47137207 1024.71756348 43.22790039 1025.56012695 42.97705078 1026.42822266 C41.27571423 1032.77525389 41.27571423 1032.77525389 42.54101562 1039.03833008 C43.16298828 1040.00923584 43.78496094 1040.9801416 44.42578125 1041.98046875 C45.11897461 1043.08753174 45.81216797 1044.19459473 46.52636719 1045.33520508 C47.08946594 1046.20527695 47.08946594 1046.20527695 47.66394043 1047.09292603 C49.25899335 1049.55839043 50.81108703 1052.04991543 52.36639404 1054.54057312 C53.16995968 1055.82650906 53.9756855 1057.11109753 54.7835083 1058.3943634 C58.70902724 1064.63932275 62.41754066 1070.9964823 66.08203125 1077.3984375 C66.69256348 1078.46215576 67.3030957 1079.52587402 67.93212891 1080.62182617 C73.64295321 1090.59328814 79.30235629 1100.59400545 84.9375 1110.60839844 C86.16079506 1112.78171746 87.38637102 1114.9537207 88.61328125 1117.125 C90.41515705 1120.31607332 92.20994801 1123.51104912 94.00048828 1126.70849609 C94.99275108 1128.48016003 95.98608717 1130.25122291 96.97998047 1132.02197266 C105.21552603 1146.70696186 113.24086498 1161.47457838 120.96191406 1176.43847656 C123.12762802 1180.62325955 125.32280952 1184.79237211 127.51953125 1188.9609375 C127.92655273 1189.73574463 128.33357422 1190.51055176 128.75292969 1191.30883789 C130.69292222 1194.99771571 132.64732109 1198.67735078 134.63671875 1202.33984375 C138.77295191 1209.9793855 142.68124456 1217.70161286 146.33203125 1225.5859375 C146.91126343 1226.80494751 146.91126343 1226.80494751 147.50219727 1228.04858398 C150.30797991 1234.23551551 152.15973215 1240.17558133 150.72265625 1246.96484375 C142.74268889 1265.73962997 133.96428565 1284.14026314 124.79760742 1302.3605957 C123.26209953 1305.41321189 121.73313272 1308.46903777 120.20507812 1311.52539062 C114.77812108 1322.35977937 109.24886441 1333.13226985 103.57641602 1343.84008789 C101.00809098 1348.68854734 98.49447464 1353.56403539 95.98291016 1358.44213867 C91.04647184 1368.02957499 86.03047382 1377.54937817 80.73388672 1386.94262695 C77.81816543 1392.13809814 75.13344436 1397.41826808 72.51025391 1402.76611328 C68.20107815 1411.48079511 63.43918938 1419.95481726 58.75976562 1428.47412109 C55.56573902 1434.31709246 52.44848976 1440.20133055 49.33203125 1446.0859375 C50.64300781 1446.21548828 50.64300781 1446.21548828 51.98046875 1446.34765625 C79.51637405 1449.49379218 105.06106793 1460.28221912 126.33203125 1478.0859375 C127.11835937 1478.72660156 127.9046875 1479.36726563 128.71484375 1480.02734375 C145.29995883 1494.14288841 161.28837905 1516.92844522 163.33203125 1539.0859375 C163.45950889 1544.20004028 163.25213586 1547.81402819 160.20703125 1552.0234375 C154.22571214 1556.31438382 147.95134818 1557.81971706 140.83203125 1559.1484375 C140.05472656 1559.30892578 139.27742187 1559.46941406 138.4765625 1559.63476562 C119.2919767 1563.29246996 99.60303592 1563.46159761 80.14453125 1563.3984375 C78.9708197 1563.39661469 77.79710815 1563.39479187 76.58782959 1563.39291382 C-32.8954423 1563.10829847 -32.8954423 1563.10829847 -56.44140625 1542.6796875 C-62.57626268 1535.5331179 -61.32134372 1526.86186282 -60.89746094 1517.90771484 C-59.29367922 1498.18802433 -49.51466233 1479.93263108 -35.66796875 1466.0859375 C-33.96218358 1464.78388847 -32.23392632 1463.51053947 -30.48046875 1462.2734375 C-26.31618507 1459.11857166 -24.17548986 1455.77230484 -22.0078125 1451.11328125 C-21.31177096 1449.67114655 -20.61538352 1448.22917876 -19.91870117 1446.78735352 C-19.55408783 1446.02319122 -19.18947449 1445.25902893 -18.81381226 1444.47171021 C-16.82433513 1440.32939914 -14.76536559 1436.22171134 -12.71484375 1432.109375 C-11.84587215 1430.36112132 -10.97697678 1428.61282974 -10.1081543 1426.86450195 C3.94979686 1398.61426031 3.94979686 1398.61426031 11.00683594 1385.95458984 C15.28994327 1378.25320415 19.31309576 1370.42720593 23.33203125 1362.5859375 C27.78658339 1353.89786062 32.28247311 1345.24951661 37.01953125 1336.7109375 C43.82399019 1324.41541333 50.15170416 1311.87224944 56.53271484 1299.35375977 C57.4371305 1297.57956742 58.34158962 1295.80539724 59.24609375 1294.03125 C59.68678192 1293.16674728 60.12747009 1292.30224457 60.58151245 1291.4115448 C63.12379551 1286.43114718 65.68877979 1281.46392721 68.29296875 1276.515625 C68.86990479 1275.41774658 69.44684082 1274.31986816 70.04125977 1273.1887207 C71.04727124 1271.28102146 72.05753226 1269.37555072 73.07397461 1267.47338867 C73.99626998 1265.72321128 74.8909384 1263.9582233 75.75878906 1262.18041992 C77.00865883 1259.72199359 78.3336833 1257.41950229 79.75683594 1255.0637207 C84.2135825 1247.36604414 84.2135825 1247.36604414 85.03518677 1238.7305603 C83.28413181 1232.74381904 80.10626544 1227.48879682 76.95703125 1222.1484375 C76.02999392 1220.46443561 75.10935924 1218.77689367 74.19506836 1217.0859375 C72.41333307 1213.81274528 70.59947066 1210.56205035 68.74658203 1207.32861328 C66.38430636 1203.20238393 64.17062546 1199.01385569 62.01269531 1194.77734375 C60.17810114 1191.18185963 58.25086859 1187.63694443 56.33203125 1184.0859375 C55.89971191 1183.28043457 55.46739258 1182.47493164 55.02197266 1181.64501953 C47.39718 1167.44870083 39.44958643 1153.44219438 31.42100525 1139.47166443 C29.07593136 1135.38893172 26.74531527 1131.29822501 24.421875 1127.203125 C4.37027096 1091.64949353 4.37027096 1091.64949353 -17.42578125 1057.15795898 C-18.66796875 1055.0859375 -18.66796875 1055.0859375 -19.67578125 1052.53149414 C-21.74734145 1047.82674884 -23.45161479 1045.59947438 -28.27172852 1043.56445312 C-33.12598446 1042.14604311 -38.08110566 1041.22680785 -43.04296875 1040.2734375 C-44.94530112 1039.87494141 -46.84665226 1039.47173666 -48.74707031 1039.06420898 C-52.8611181 1038.18479072 -56.97852883 1037.32419828 -61.09863281 1036.47363281 C-71.39436765 1034.32484703 -81.62421865 1031.88654521 -91.86254883 1029.48193359 C-97.8134855 1028.08685718 -103.76837101 1026.70882439 -109.72265625 1025.328125 C-119.67198736 1023.01741086 -129.62129715 1020.70643378 -139.56491089 1018.37121582 C-144.49962668 1017.21281645 -149.43655479 1016.06834839 -154.38232422 1014.95800781 C-163.05623372 1012.9948036 -171.54694299 1010.89601463 -179.98046875 1008.0625 C-195.1550897 1003.12596569 -205.36643496 1001.58507536 -220.07748413 1008.89804077 C-225.52443848 1011.74524393 -230.78575252 1014.86447824 -236.015625 1018.08905029 C-239.64999894 1020.28173017 -243.45125681 1022.15943044 -247.23046875 1024.0859375 C-248.51103659 1024.77246858 -249.78977393 1025.46242809 -251.06640625 1026.15625 C-254.79210841 1028.16736265 -258.5651431 1030.07497793 -262.35546875 1031.9609375 C-263.00185303 1032.28288086 -263.6482373 1032.60482422 -264.31420898 1032.93652344 C-267.25882685 1034.40008669 -270.20600027 1035.85835342 -273.15576172 1037.31152344 C-286.22150526 1043.75112038 -299.07415936 1050.49022315 -311.82763672 1057.52685547 C-315.7348513 1059.67155827 -319.65972508 1061.78290104 -323.58422852 1063.89575195 C-349.44003255 1077.82550109 -374.75500989 1092.53872506 -399.66796875 1108.0859375 C-398.22355445 1111.95100927 -396.43339668 1115.44620272 -394.39453125 1119.03125 C-393.91508308 1119.87549026 -393.91508308 1119.87549026 -393.4259491 1120.73678589 C-392.3858258 1122.56394098 -391.34004093 1124.38775661 -390.29296875 1126.2109375 C-389.75474991 1127.15066406 -389.75474991 1127.15066406 -389.20565796 1128.109375 C-383.42064337 1138.19852538 -377.43308679 1148.12787402 -371.09814453 1157.88330078 C-369.6852985 1160.05924767 -368.28320103 1162.24180123 -366.8828125 1164.42578125 C-347.04255859 1195.25878834 -326.59157435 1225.69269149 -304.66796875 1255.0859375 C-304.24177246 1255.65747559 -303.81557617 1256.22901367 -303.37646484 1256.81787109 C-301.56531011 1259.24361961 -299.74807305 1261.66463678 -297.92578125 1264.08203125 C-296.24507435 1266.31812745 -294.57413277 1268.56011553 -292.91015625 1270.80859375 C-287.0344147 1278.72600516 -281.0145265 1286.4755569 -274.68066406 1294.03417969 C-270.66796875 1298.87453959 -270.66796875 1298.87453959 -270.66796875 1301.0859375 C-270.05953125 1301.14910156 -269.45109375 1301.21226563 -268.82421875 1301.27734375 C-247.60839544 1304.24131906 -227.53826275 1318.16128988 -213.98046875 1334.3359375 C-210.32613255 1339.22929757 -207.74164975 1343.69661139 -207.60546875 1349.9609375 C-214.54102728 1370.35963905 -235.29954403 1389.07252166 -250.21362305 1403.89233398 C-252.23919357 1405.90711585 -254.25375259 1407.93247025 -256.26757812 1409.95898438 C-263.43232502 1417.13101619 -270.69508595 1423.81377683 -278.66796875 1430.0859375 C-279.75846556 1431.00852594 -280.84305769 1431.93820496 -281.91796875 1432.87890625 C-305.35301689 1453.28470811 -332.77033128 1472.2575158 -362.16796875 1482.8359375 C-362.83135254 1483.07618652 -363.49473633 1483.31643555 -364.17822266 1483.56396484 C-369.61614893 1485.37473968 -374.45479009 1486.12477646 -379.73046875 1483.6484375 C-390.96598895 1473.84723903 -396.11607424 1456.69730695 -397.54296875 1442.25 C-399.70684086 1404.78796409 -383.77022629 1372.52908024 -359.40625 1345.1015625 C-350.79659311 1335.56743816 -341.2527726 1327.37769126 -330.66796875 1320.0859375 C-334.52715723 1314.85567652 -338.52350957 1309.77916711 -342.66796875 1304.7734375 C-350.02168656 1295.80045486 -356.86688202 1286.48103464 -363.66796875 1277.0859375 C-364.21984863 1276.32490723 -364.77172852 1275.56387695 -365.34033203 1274.77978516 C-368.04726162 1271.0453961 -370.74771465 1267.30644847 -373.44140625 1263.5625 C-375.62434162 1260.52924288 -377.81775885 1257.50398509 -380.01953125 1254.484375 C-386.26356547 1245.91079014 -392.3518664 1237.2709529 -398.15673828 1228.39404297 C-399.94456884 1225.66348561 -401.74214333 1222.93942839 -403.5390625 1220.21484375 C-474.54486785 1112.34221009 -474.54486785 1112.34221009 -470.66796875 1090.0859375 C-467.32237685 1081.06985085 -460.38331553 1076.26319349 -452.66796875 1071.0859375 C-451.61222656 1070.35246094 -450.55648438 1069.61898438 -449.46875 1068.86328125 C-428.97713969 1054.76670369 -407.27019526 1042.3744671 -385.66796875 1030.0859375 C-384.68199707 1029.52277832 -383.69602539 1028.95961914 -382.68017578 1028.37939453 C-370.04711161 1021.16443126 -357.3218607 1014.13757664 -344.51171875 1007.2421875 C-340.87496177 1005.28356805 -337.24889142 1003.3082698 -333.63671875 1001.3046875 C-315.84024305 991.4523526 -297.70283651 982.24175255 -279.55932617 973.04806519 C-277.79161925 972.14883813 -276.03125088 971.23522539 -274.27148438 970.32055664 C-271.66796875 969.0859375 -271.66796875 969.0859375 -269.66796875 969.0859375 C-269.47203125 968.26738281 -269.27609375 967.44882812 -269.07421875 966.60546875 C-267.1659404 958.79962325 -265.1112959 951.05079408 -262.93115234 943.31616211 C-249.23967031 894.59758014 -239.61568185 844.68246204 -236.66796875 794.0859375 C-236.58337402 792.67127197 -236.58337402 792.67127197 -236.49707031 791.22802734 C-235.16905762 767.54775368 -235.57115691 743.79292255 -235.66796875 720.0859375 C-236.56128906 720.32376953 -236.56128906 720.32376953 -237.47265625 720.56640625 C-244.48587026 722.22611704 -250.57921565 720.68129017 -256.66796875 717.0859375 C-265.80132845 709.20765868 -272.1372743 698.1347169 -276.66796875 687.0859375 C-283.76158042 688.95634223 -290.74784069 691.02127187 -297.703125 693.3515625 C-299.64008473 693.99356657 -301.57718425 694.63514904 -303.5144043 695.27636719 C-305.03050797 695.77928284 -305.03050797 695.77928284 -306.57723999 696.2923584 C-408.72837896 730.09986237 -408.72837896 730.09986237 -458.66796875 738.0859375 C-459.61865234 738.24384766 -460.56933594 738.40175781 -461.54882812 738.56445312 C-490.69528816 743.35970687 -490.69528816 743.35970687 -502.66796875 736.0859375 C-505.43352316 733.98335618 -507.88994646 731.65464101 -510.35546875 729.2109375 C-511.05462402 728.53546875 -511.7537793 727.86 -512.47412109 727.1640625 C-514.88755028 724.81997574 -517.27875274 722.454694 -519.66796875 720.0859375 C-520.63631104 719.13093646 -521.6049084 718.176194 -522.57373047 717.22167969 C-525.65442196 714.18406764 -528.72598517 711.13738568 -531.79296875 708.0859375 C-532.52947159 707.35386078 -532.52947159 707.35386078 -533.28085327 706.60699463 C-538.96975746 700.94133868 -544.44508011 695.18196419 -549.66796875 689.0859375 C-551.08120425 687.5411249 -552.49737284 685.99898425 -553.91796875 684.4609375 C-558.00601378 679.93563129 -561.77358172 675.21719311 -565.50854492 670.40209961 C-568.50809616 666.54045822 -571.5791703 662.76251732 -574.73046875 659.0234375 C-579.90200907 652.8533109 -584.83180971 646.5197116 -589.66796875 640.0859375 C-590.18343262 639.40176758 -590.69889648 638.71759766 -591.22998047 638.01269531 C-607.62287742 616.19101329 -622.75873104 593.56394158 -636.66796875 570.0859375 C-637.83714844 570.43527344 -639.00632812 570.78460937 -640.2109375 571.14453125 C-641.75908013 571.6042827 -643.30725914 572.06391167 -644.85546875 572.5234375 C-645.62439453 572.75353516 -646.39332031 572.98363281 -647.18554688 573.22070312 C-647.93642578 573.44306641 -648.68730469 573.66542969 -649.4609375 573.89453125 C-650.14696045 574.09876709 -650.8329834 574.30300293 -651.53979492 574.51342773 C-675.16024295 580.86767239 -699.95982303 574.97077353 -720.66796875 563.0859375 C-725.33103122 560.12434116 -729.52455276 556.72958662 -733.66796875 553.0859375 C-734.47363281 552.39113281 -735.27929688 551.69632813 -736.109375 550.98046875 C-745.49839506 542.27725537 -755.65999683 528.88040039 -756.8828125 515.78515625 C-756.2309815 498.92257163 -745.55375858 480.31949178 -734.66796875 468.0859375 C-733.94867187 467.26609375 -733.94867187 467.26609375 -733.21484375 466.4296875 C-730.47745442 463.72237937 -728.03679668 462.69332806 -724.29296875 462.3984375 C-718.79857243 462.72975788 -715.62389477 465.49965069 -711.66796875 469.0859375 C-698.70943013 480.64972147 -686.89522004 485.31903993 -669.66796875 487.0859375 C-671.95901554 466.96866367 -677.25614579 452.57388453 -688.76953125 436.07421875 C-692.43440884 430.66739316 -695.67356619 425.83957957 -694.66796875 419.0859375 C-692.54997913 412.85790317 -688.21228567 409.5168868 -682.58203125 406.4609375 C-666.78750041 399.00829024 -645.80053158 393.17815721 -628.66796875 399.0859375 C-612.18927517 407.50058954 -602.31284918 430.05828469 -596.34765625 446.7890625 C-589.39047846 469.77351655 -589.62808334 495.02471377 -597.21484375 517.859375 C-598.17855869 522.59487081 -596.28517133 526.13504892 -593.84375 530.1015625 C-593.23837402 531.08890381 -592.63299805 532.07624512 -592.00927734 533.09350586 C-591.33977051 534.1635083 -590.67026367 535.23351074 -589.98046875 536.3359375 C-589.46217499 537.17029831 -589.46217499 537.17029831 -588.93341064 538.02151489 C-573.54173823 562.78960791 -557.25239879 586.96570386 -539.31713867 609.96582031 C-537.9073228 611.77823201 -536.50641805 613.59663778 -535.11328125 615.421875 C-523.96107498 630.02863674 -512.17475634 644.10931699 -499.8203125 657.71484375 C-498.32558314 659.36148753 -496.8391716 661.01570486 -495.359375 662.67578125 C-488.74675111 670.10576782 -488.74675111 670.10576782 -481.66796875 677.0859375 C-480.97445313 677.83359375 -480.2809375 678.58125 -479.56640625 679.3515625 C-475.18038805 681.97608013 -471.91131172 680.92800297 -467.04296875 679.9609375 C-465.49887329 679.67549072 -465.49887329 679.67549072 -463.92358398 679.38427734 C-460.16208251 678.66164417 -456.41420976 677.88301469 -452.66796875 677.0859375 C-451.93414978 676.93084717 -451.20033081 676.77575684 -450.4442749 676.6159668 C-410.93185473 668.22714729 -372.2541217 656.92584962 -333.79296875 644.6484375 C-332.2452327 644.15509918 -332.2452327 644.15509918 -330.66622925 643.65179443 C-319.51401979 640.08556709 -308.43966678 636.39401651 -297.50930786 632.18983459 C-291.97653286 630.0859375 -291.97653286 630.0859375 -288.66796875 630.0859375 C-288.714375 629.36792969 -288.76078125 628.64992188 -288.80859375 627.91015625 C-289.05894146 620.73054157 -288.35200533 614.17235953 -286.91796875 607.1484375 C-286.76102539 606.3443042 -286.60408203 605.5401709 -286.44238281 604.71166992 C-285.02706532 598.20080197 -282.62447472 592.92070951 -276.91796875 589.0859375 C-272.68500386 586.42541728 -268.25782337 584.55500677 -263.60546875 582.7734375 C-262.94514648 582.51884766 -262.28482422 582.26425781 -261.60449219 582.00195312 C-256.95741489 580.31252532 -252.59030458 579.55237958 -247.66796875 579.0859375 C-247.50296875 578.4053125 -247.33796875 577.7246875 -247.16796875 577.0234375 C-236.62366696 556.37417984 -194.89591302 546.7429776 -174.66796875 540.0859375 C-173.3003807 539.62749524 -171.9331484 539.16798924 -170.56640625 538.70703125 C-167.93692653 537.82335364 -165.30319934 536.95231468 -162.66796875 536.0859375 C-163.32796875 532.7859375 -163.98796875 529.4859375 -164.66796875 526.0859375 C-165.51689697 526.07135498 -166.3658252 526.05677246 -167.24047852 526.04174805 C-234.43847892 524.75880707 -291.76981188 504.90949169 -339.52734375 456.37890625 C-376.54922094 416.72226043 -395.37110684 362.6347202 -393.77734375 308.69580078 C-391.43703427 252.85225538 -366.70504941 199.16228919 -325.66796875 161.0859375 C-294.27962669 132.87023647 -256.4064946 113.38183884 -214.66796875 106.0859375 C-213.83749023 105.93785645 -213.00701172 105.78977539 -212.15136719 105.63720703 C-200.10993664 103.57404049 -188.18689735 102.8125125 -175.98046875 102.7734375 C-174.74006836 102.76795898 -173.49966797 102.76248047 -172.22167969 102.75683594 C-164.52302841 102.81693308 -157.21589691 103.56870928 -149.66796875 105.0859375 C-149.24717041 103.95768555 -149.24717041 103.95768555 -148.81787109 102.80664062 C-147.80797895 100.41720579 -146.80159732 98.62276893 -145.26953125 96.5546875 C-144.79604248 95.91523193 -144.32255371 95.27577637 -143.8347168 94.61694336 C-143.32593994 93.94671143 -142.81716309 93.27647949 -142.29296875 92.5859375 C-141.76421143 91.8854126 -141.2354541 91.1848877 -140.69067383 90.46313477 C-135.4281287 83.59809992 -129.67249026 77.30176182 -123.66796875 71.0859375 C-123.05695312 70.42335938 -122.4459375 69.76078125 -121.81640625 69.078125 C-104.32242286 50.55001452 -78.55251735 37.14823239 -54.66796875 29.0859375 C-53.67796875 29.0859375 -52.68796875 29.0859375 -51.66796875 29.0859375 C-51.99796875 28.0959375 -52.32796875 27.1059375 -52.66796875 26.0859375 C-52.22124457 16.43398783 -49.85228045 8.04941645 -42.7421875 1.2421875 C-30.00548365 -8.84824972 -13.34882308 -9.57675448 0 0 Z " fill="#030304" transform="translate(776.66796875,16.9140625)"/>
<path d="M0 0 C0.7425 0.66 1.485 1.32 2.25 2 C5.22880885 2.99293628 7.26601198 3.13406411 10.375 3.125 C11.26445313 3.12757813 12.15390625 3.13015625 13.0703125 3.1328125 C15.22791088 3.24301985 15.22791088 3.24301985 16.25 2 C23.67962334 2.35523123 29.91120595 4.38958805 36.8125 7.0625 C37.86808105 7.465896 38.92366211 7.86929199 40.01123047 8.28491211 C48.08193335 11.42474889 55.8696317 14.90447147 63.47802734 19.03808594 C65.22130302 19.98442186 66.97974574 20.90264447 68.73828125 21.8203125 C108.96181877 43.59477562 137.5662463 82.14026346 151.0625 125.375 C159.6499148 154.48354759 160.1894933 186.44649358 153.25 216 C152.95246826 217.30735107 152.95246826 217.30735107 152.64892578 218.64111328 C147.68771176 239.76080798 138.77267952 260.26759126 126.25 278 C125.7741748 278.67885254 125.29834961 279.35770508 124.80810547 280.05712891 C118.60450704 288.82216101 112.09327917 296.6460762 104.25 304 C102.58075136 305.66408069 100.91403993 307.33071073 99.25 309 C90.83999975 317.37783963 81.25491416 323.69221252 71.25 330 C70.64140137 330.38575195 70.03280273 330.77150391 69.40576172 331.16894531 C28.18768575 356.94958422 -22.80736095 361.68588697 -69.625 351.375 C-100.63078802 344.13201922 -128.39714548 328.49415794 -151.75 307 C-152.2975293 306.49774902 -152.84505859 305.99549805 -153.40917969 305.47802734 C-167.25689079 292.61239427 -178.15799999 277.79951782 -186.75 261 C-187.12608398 260.28682617 -187.50216797 259.57365234 -187.88964844 258.83886719 C-194.76296489 245.73174655 -199.11525779 232.31816674 -202.75 218 C-202.9759082 217.16903809 -203.20181641 216.33807617 -203.43457031 215.48193359 C-210.31476907 189.76309538 -208.57644699 160.46963973 -201.75 135 C-201.56356934 134.26797363 -201.37713867 133.53594727 -201.18505859 132.78173828 C-200.17152704 128.80704844 -199.0233527 124.89866012 -197.75 121 C-197.46769531 120.1028125 -197.18539063 119.205625 -196.89453125 118.28125 C-194.03474822 109.78931785 -189.90995321 101.91130657 -185.75 94 C-185.39776367 93.32211426 -185.04552734 92.64422852 -184.68261719 91.94580078 C-177.23527681 77.7166706 -167.76997057 65.6615442 -156.75 54 C-155.9559375 53.14148438 -155.161875 52.28296875 -154.34375 51.3984375 C-138.3187309 34.64939646 -118.62145777 22.72728509 -97.75 13 C-97.09870117 12.69320312 -96.44740234 12.38640625 -95.77636719 12.0703125 C-74.8454609 2.36683143 -20.93338302 -15.22427856 0 0 Z " fill="#B6CDFE" transform="translate(621.75,154)"/>
<path d="M0 0 C11.83051471 28.1253746 22.16686719 56.99739116 29.21289062 86.70751953 C30.04694429 90.19636806 30.91904938 93.67426388 31.796875 97.15234375 C38.06508777 122.19349508 42.50542703 147.43370418 46 173 C46.16886719 174.22783203 46.33773437 175.45566406 46.51171875 176.72070312 C51.18946567 211.1707265 53.50135529 245.20253987 53.3225708 279.96850586 C53.30906249 283.53175333 53.31442268 287.09487755 53.31944847 290.65813923 C53.33913222 309.28631716 53.0241496 327.72536912 51.24243164 346.28295898 C50.89426256 350.1850473 50.6541408 354.0921424 50.41059875 358.00193787 C48.75359724 384.42091818 44.17232877 411.06057676 39 437 C38.85385254 437.75619629 38.70770508 438.51239258 38.55712891 439.29150391 C35.70209146 454.02525599 31.85669628 468.5016186 28 483 C22.00089604 481.69065397 16.02797424 480.29840972 10.06640625 478.828125 C8.36297443 478.41016143 6.65952315 477.9922771 4.95605469 477.57446289 C4.07639038 477.35839386 3.19672607 477.14232483 2.29040527 476.91970825 C-10.03946143 473.89269204 -22.36791265 470.86990708 -34.75 468.0625 C-48.93646269 464.84331028 -63.05506474 461.34406363 -77.18066406 457.86938477 C-86.77238307 455.51146811 -96.36443197 453.17351288 -106 451 C-104.44973298 445.22001894 -102.85388059 439.45684553 -101.16796875 433.71484375 C-96.5378911 417.92112151 -92.35018417 402.11594656 -89 386 C-88.79567352 385.02081604 -88.79567352 385.02081604 -88.58721924 384.02185059 C-84.33997975 363.57019832 -81.17842187 343.05028838 -78.6875 322.3125 C-78.56439453 321.29687988 -78.44128906 320.28125977 -78.31445312 319.23486328 C-75.17213275 293.03895195 -73.65902528 267.06965807 -73.73925781 240.70385742 C-73.75062007 236.94994894 -73.74388912 233.19632533 -73.73236847 229.44242668 C-72.72357493 197.92078431 -72.72357493 197.92078431 -77 167 C-77.14068843 165.57967626 -77.24609286 164.15560352 -77.32421875 162.73046875 C-79.08218289 135.33976159 -83.43066998 107.92144579 -90.16845703 81.3203125 C-90.92340979 78.30582117 -91.64955633 75.28570894 -92.36408997 72.26141357 C-96.44510438 55.00751447 -101.23510752 38.25605126 -107.18725586 21.53833008 C-107.98755102 19.03888015 -108.53806708 16.58142403 -109 14 C-72.78347499 5.04485282 -37.40615597 -0.55753271 0 0 Z " fill="#B1D1FE" transform="translate(760,556)"/>
<path d="M0 0 C2.76265543 9.76961388 5.06651906 19.59211916 7.16088867 29.52563477 C8.17202072 34.29739545 9.2444542 39.03872377 10.44921875 43.765625 C18.90306842 77.19101151 24.40773873 111.64963333 28.375 145.875 C28.45462982 146.54933075 28.53425964 147.2236615 28.61630249 147.91842651 C31.32624143 171.20823329 31.27940898 194.64797137 31.3125 218.0625 C31.31394516 218.86710789 31.31539032 219.67171577 31.31687927 220.50070572 C31.35443907 246.44432999 30.54028322 272.03456857 27.27532959 297.80285645 C27.00523509 299.95822374 26.74923519 302.11475889 26.49853516 304.27246094 C24.68496847 319.84198952 22.18553652 335.23276892 19.21484375 350.62109375 C18.24785085 355.63269865 17.36919175 360.65292437 16.53125 365.6875 C14.7860817 376.15850981 12.59446547 386.47695811 10.22436523 396.82348633 C7.66845812 408.13829995 5.75672647 419.53712325 4 431 C-3.89224942 430.33521009 -11.41877324 428.66720201 -19.125 426.875 C-20.49882366 426.55929877 -21.87276838 426.24412399 -23.24682617 425.92944336 C-26.09289419 425.27731335 -28.93843422 424.62294307 -31.78369141 423.96728516 C-37.02729311 422.76138139 -42.27776882 421.58688596 -47.52832031 420.41162109 C-51.97853802 419.41304966 -56.42616672 418.40332676 -60.87307739 417.39013672 C-64.46454205 416.57271349 -68.05754244 415.76284836 -71.65283203 414.96240234 C-75.62563173 414.07771141 -79.59530979 413.18004209 -83.56332397 412.2741394 C-85.09729195 411.92633415 -86.63231027 411.58312751 -88.16836548 411.24465942 C-90.30009913 410.77417066 -92.42752163 410.28754009 -94.5546875 409.796875 C-95.77655762 409.52198242 -96.99842773 409.24708984 -98.25732422 408.96386719 C-99.16240723 408.64579102 -100.06749023 408.32771484 -101 408 C-102.36958397 403.89124808 -100.86343279 401.20745216 -99.4375 397.3125 C-95.51232179 386.06231943 -92.72075604 374.59080126 -90 363 C-89.79020508 362.12408203 -89.58041016 361.24816406 -89.36425781 360.34570312 C-86.1245939 346.72972437 -83.69073096 332.97455035 -81.3125 319.1875 C-81.16193146 318.32230743 -81.01136292 317.45711487 -80.85623169 316.56570435 C-78.92113808 305.39662857 -77.36488198 294.25120967 -76.21273804 282.97491455 C-75.86059006 279.70581341 -75.42512184 276.44778688 -75 273.1875 C-74.74689581 271.15219928 -74.49849998 269.11640397 -74.25302124 267.08016968 C-74.08647545 265.71094271 -73.915232 264.34227763 -73.73892212 262.97427368 C-71.6166504 246.16029844 -71.65832577 229.32050333 -71.68432617 212.40478516 C-71.68891539 209.16343143 -71.68218106 205.92245677 -71.66381836 202.68115234 C-71.4904802 171.72445477 -73.06223251 141.02943645 -78.0625 110.4375 C-78.32219322 108.78079125 -78.58064684 107.12388773 -78.83789062 105.46679688 C-79.43469612 101.64380678 -80.04752087 97.82373456 -80.67208862 94.00518799 C-80.97809825 92.13392984 -81.2803326 90.26205539 -81.58227539 88.39013672 C-82.53715355 82.53696257 -83.70562776 76.80134042 -85.078125 71.03125 C-86.5765631 64.60356078 -87.86596603 58.12865767 -89.19848633 51.66503906 C-90.41655637 45.7647867 -91.67692166 39.87763835 -93 34 C-80.31308274 26.99636242 -67.56598239 21.08279595 -54 16 C-53.1140918 15.66226563 -52.22818359 15.32453125 -51.31542969 14.9765625 C-38.76717605 10.199696 -26.13971116 6.09579789 -13.17626953 2.59863281 C-11.15711379 2.04321775 -9.15627352 1.44344687 -7.15234375 0.8359375 C-4 0 -4 0 0 0 Z " fill="#868EFD" transform="translate(643,573)"/>
<path d="M0 0 C0.80695313 0.26296875 1.61390625 0.5259375 2.4453125 0.796875 C12.79217337 4.49449926 21.54508461 11.13168602 30 18 C28.33421723 28.7654319 12.99414606 41.02818246 5.37890625 48.609375 C3.20640159 50.79258165 1.19128012 53.03795961 -0.8125 55.375 C-3.93049806 58.90524733 -7.16298363 62.03499007 -10.7578125 65.0703125 C-12.93376601 66.94299723 -15.03198794 68.88472995 -17.12573242 70.84838867 C-23.54883557 76.85311676 -30.29204271 82.32318172 -37.26953125 87.66796875 C-38.93987667 88.95371996 -40.59659683 90.25506441 -42.25 91.5625 C-56.61485049 102.87352717 -71.98875746 112.19682291 -88 121 C-89.13308594 121.63035156 -90.26617187 122.26070312 -91.43359375 122.91015625 C-94 124 -94 124 -97 123 C-103.5129437 106.91865754 -100.53983596 88.36648228 -94.10693359 72.84521484 C-90.02463872 63.65102916 -84.91041287 55.13854471 -79 47 C-78.4328125 46.20851563 -77.865625 45.41703125 -77.28125 44.6015625 C-67.02726367 31.0645016 -54.66923718 19.52719251 -40 11 C-39.3827002 10.63438965 -38.76540039 10.2687793 -38.12939453 9.89208984 C-13.02097301 -4.8225826 -13.02097301 -4.8225826 0 0 Z " fill="#B1D0FD" transform="translate(507,1346)"/>
<path d="M0 0 C1.01258377 -0.00299103 1.01258377 -0.00299103 2.04562378 -0.00604248 C34.2110377 0.00470783 63.37752012 11.0664177 86.8125 33.125 C93.41976958 39.93739723 99.33265872 48.40882603 102.5625 57.375 C95.3861789 64.5513211 67.78945557 60.6491047 57.80350876 60.65088654 C55.68572279 60.64842636 53.56797131 60.64260401 51.45019531 60.63574219 C47.90536793 60.62437047 44.36084179 60.63111194 40.81602478 60.64262772 C23.98240076 60.68891468 7.31495122 60.18117011 -9.4375 58.375 C-10.41544525 58.26996155 -11.3933905 58.1649231 -12.40097046 58.05670166 C-24.33386878 56.75293811 -36.05392114 54.80317491 -47.8125 52.375 C-49.05032227 52.12588867 -50.28814453 51.87677734 -51.56347656 51.62011719 C-52.70526367 51.37422852 -53.84705078 51.12833984 -55.0234375 50.875 C-56.0448584 50.6584375 -57.0662793 50.441875 -58.11865234 50.21875 C-58.88387207 49.9403125 -59.6490918 49.661875 -60.4375 49.375 C-62.56552956 42.99091133 -58.72575263 34.3733225 -56.11328125 28.29296875 C-51.38955374 19.24670703 -44.24147029 7.83516677 -34.51635742 3.52319336 C-32.35272812 2.86830374 -30.22431946 2.40399908 -28 2 C-26.7478772 1.76095947 -26.7478772 1.76095947 -25.47045898 1.51708984 C-17.01980029 0.12101793 -8.54193661 0.00668122 0 0 Z " fill="#B1D0FD" transform="translate(805.4375,1490.625)"/>
<path d="M0 0 C6.72950533 0.43867788 11.95491847 3.08897635 17.9375 6.0625 C18.96311035 6.56273682 19.9887207 7.06297363 21.04541016 7.57836914 C26.67245814 10.33014468 32.27636752 13.12844571 37.875 15.9375 C39.839759 16.91911698 41.80472247 17.90032004 43.77001953 18.88085938 C45.3649439 19.68129 46.95672587 20.4879944 48.54638672 21.29882812 C75.87899061 35.19463311 104.4505419 45.00154727 133.95654297 53.12792969 C136.57150398 53.87721901 139.13371898 54.69572287 141.703125 55.5859375 C146.59815023 57.25940256 151.57922202 58.37821026 156.625 59.5 C158.91167516 60.01857607 161.19811271 60.53820045 163.484375 61.05859375 C164.12015472 61.20288315 164.75593445 61.34717255 165.41098022 61.49583435 C174.54034134 63.57089979 183.6558966 65.70565927 192.77215576 67.83740234 C195.79648464 68.5441519 198.82131766 69.24871174 201.84619141 69.953125 C211.26129862 72.15010089 220.66819107 74.37885108 230.0546875 76.6953125 C230.86710907 76.89343033 231.67953064 77.09154816 232.51657104 77.29566956 C238.21952191 78.71683235 243.67088745 80.48970751 249 83 C249 83.99 249 84.98 249 86 C245.12561824 87.29146059 241.43802442 87.18159594 237.3984375 87.203125 C236.10769569 87.21357849 236.10769569 87.21357849 234.7908783 87.22424316 C231.98553653 87.24174753 229.18039432 87.2479767 226.375 87.25 C225.42072113 87.25100708 224.46644226 87.25201416 223.48324585 87.25305176 C208.41714494 87.24227248 193.88646015 86.45085218 179 84 C177.16948153 83.72904153 175.33875055 83.45951486 173.5078125 83.19140625 C137.79985084 77.71480216 102.31586181 67.12689594 70 51 C69.0733252 50.53948242 68.14665039 50.07896484 67.19189453 49.60449219 C42.70746205 37.33863818 17.34397504 22.70419223 0 1 C0 0.67 0 0.34 0 0 Z " fill="#050506" transform="translate(454,336)"/>
<path d="M0 0 C4.34876876 1.52658857 6.42031793 4.86247305 8.9375 8.5 C9.37553955 9.12640381 9.8135791 9.75280762 10.26489258 10.39819336 C19.1941457 23.38785791 19.1941457 23.38785791 18.828125 28.3125 C10.34136667 55.8544327 -13.26645179 78.70053623 -38 92 C-42.88414781 94.3084168 -47.92010309 96.16851463 -53 98 C-54.32451172 98.60328125 -54.32451172 98.60328125 -55.67578125 99.21875 C-61.960151 101.33114319 -69.93423164 95.49690098 -75.49609375 92.78125 C-77.33530724 91.86328248 -79.16840538 90.9330765 -81 90 C-80.31191773 79.1627043 -76.16512509 71.77209227 -70 63 C-69.34 62.01 -68.68 61.02 -68 60 C-65.7421875 59.5859375 -65.7421875 59.5859375 -62.875 59.375 C-50.32312398 57.56463327 -39.34500471 49.12457499 -30 41 C-29.3915625 40.52304688 -28.783125 40.04609375 -28.15625 39.5546875 C-15.71663766 29.65954132 -6.55189255 14.28905209 0 0 Z " fill="#B0D0FC" transform="translate(1191,212)"/>
<path d="M0 0 C3.20588289 0.59758782 5.01174321 1.60849597 7.5 3.6875 C21.89464552 14.74195153 40.05521905 19.29213611 58 17 C60.47398499 16.17415177 62.50944557 15.16776228 64.78125 13.91015625 C71.87965848 10.99830911 80.34265034 12.37741626 87.3125 15 C93.10036684 17.69582522 97.54934145 21.4706682 102 26 C100.57462143 29.23229787 98.81772053 31.4023259 96.375 33.9375 C92.93952711 37.63017407 90.75088194 41.28016137 88.4375 45.75 C84.29617887 52.81169499 80.04647562 54.25834151 72.48828125 56.265625 C71.33714844 56.50796875 70.18601562 56.7503125 69 57 C68.20078125 57.17450684 67.4015625 57.34901367 66.578125 57.52880859 C48.17292978 60.89263689 29.22174191 56.91379134 13.74609375 46.48046875 C7.59828696 41.91505397 2.22663473 36.57859667 -3 31 C-3.68320312 30.30648437 -4.36640625 29.61296875 -5.0703125 28.8984375 C-9.06815884 24.39861942 -9.06815884 24.39861942 -8.90234375 20.99609375 C-8.14328658 18.52802163 -7.12117378 16.32806422 -6 14 C-5.20744773 12.1268752 -4.41513559 10.25363801 -3.62988281 8.37744141 C-2.44801071 5.57243671 -1.22479178 2.78650039 0 0 Z " fill="#B1D0FD" transform="translate(53,510)"/>
<path d="M0 0 C3.79697849 2.87621121 5.67102458 6.68583536 7.0625 11.12109375 C7.37332432 13.87370916 7.54094095 16.31810866 7.5 19.05859375 C7.49097656 19.79658203 7.48195313 20.53457031 7.47265625 21.29492188 C6.90832334 39.68276933 -0.75591719 59.16483714 -13.9375 72.12109375 C-18.75379892 76.31970442 -23.38135196 79.04647964 -29.8671875 79.3515625 C-33.42176923 78.95586378 -35.33059805 77.48549319 -37.9375 75.12109375 C-44.14920072 66.89478739 -43.70109683 58.018102 -42.9375 48.12109375 C-41.6634628 39.44417079 -39.07999286 30.85740492 -34.9375 23.12109375 C-34.44507813 22.1671875 -33.95265625 21.21328125 -33.4453125 20.23046875 C-27.07923058 8.55442909 -15.28129582 -6.93203943 0 0 Z " fill="#020303" transform="translate(564.9375,242.87890625)"/>
<path d="M0 0 C4.94921603 2.52725925 7.06681237 6.95877766 9 12 C9.53105285 14.88036624 9.57356562 17.63979253 9.5 20.5625 C9.48864014 21.34189941 9.47728027 22.12129883 9.46557617 22.92431641 C8.87920616 40.7695708 1.29834778 59.57300652 -11.0625 72.5 C-16.53451602 77.60581992 -21.07448683 79.67035609 -28.59765625 79.41015625 C-32.73833333 78.70321138 -34.23184248 77.17325374 -37 74 C-40.13662566 68.16301796 -40.54448125 63.13089802 -40.5 56.5625 C-40.49500488 55.59328613 -40.49000977 54.62407227 -40.48486328 53.62548828 C-40.06760145 36.19545448 -32.68195551 18.43510359 -20.140625 6.18359375 C-13.70619961 0.47785329 -8.6672981 -1.00602567 0 0 Z " fill="#020303" transform="translate(676,285)"/>
<path d="M0 0 C3.66609939 0.0306523 3.96645755 0.27129352 6.80078125 3.02734375 C7.60551105 4.23856743 8.37461316 5.4739563 9.11328125 6.7265625 C9.52843994 7.39083252 9.94359863 8.05510254 10.37133789 8.73950195 C19.98326317 24.69445267 25.68627161 41.54419375 25.42578125 60.2265625 C25.42900391 61.40154297 25.43222656 62.57652344 25.43554688 63.78710938 C25.398835 69.69772189 25.15362128 74.84580384 23.11328125 80.4140625 C20.37157331 79.207711 18.37991747 77.84203875 15.98828125 75.9765625 C9.48577175 71.25632541 1.90311697 70.3062176 -5.88671875 69.4140625 C-5.87624512 68.84075195 -5.86577148 68.26744141 -5.85498047 67.67675781 C-5.49445274 44.92243781 -8.05045566 24.16987264 -23.88671875 6.4140625 C-23.88671875 5.7540625 -23.88671875 5.0940625 -23.88671875 4.4140625 C-15.92293455 2.50993966 -8.14546374 0.86775795 0 0 Z " fill="#B0CFFB" transform="translate(134.88671875,438.5859375)"/>
<path d="M0 0 C0.06469482 0.5576001 0.12938965 1.1152002 0.19604492 1.68969727 C2.11782819 17.74854712 4.66361307 32.36438336 14 46 C13.34644531 46.65742188 13.34644531 46.65742188 12.6796875 47.328125 C5.62039993 54.84580786 0.40294397 63.52345672 0 74 C-7.91839577 70.91863332 -12.9957195 60.60937048 -16.3125 53.25 C-21.93859227 39.13788521 -24.25472621 25.14205785 -24 10 C-18.80671552 7.24437966 -13.51652464 4.92954026 -8.0625 2.75 C-7.05014282 2.34467041 -7.05014282 2.34467041 -6.01733398 1.93115234 C-1.13480959 0 -1.13480959 0 0 0 Z " fill="#B0D0FC" transform="translate(1099,217)"/>
<path d="M0 0 C1.14559377 7.58973182 2.28486785 15.18039145 3.41673851 22.77218151 C3.94286792 26.29982178 4.47092717 29.82714735 5.00390625 33.35375977 C11.21901942 74.50500585 11.21901942 74.50500585 11 89 C7.9375 89.6875 7.9375 89.6875 4 89 C0.92646433 85.79552896 -1.02077342 81.93891794 -3 78 C-3.34240723 77.31953613 -3.68481445 76.63907227 -4.03759766 75.93798828 C-8.84653824 66.17385246 -12.4073056 56.81979171 -14 46 C-14.18433594 44.83984375 -14.36867188 43.6796875 -14.55859375 42.484375 C-15.30596667 36.30914165 -15.1443455 30.08490501 -15.125 23.875 C-15.12886719 22.62589844 -15.13273438 21.37679687 -15.13671875 20.08984375 C-15.13542969 18.88199219 -15.13414062 17.67414062 -15.1328125 16.4296875 C-15.13168457 15.33897949 -15.13055664 14.24827148 -15.12939453 13.12451172 C-14.99914527 9.97936074 -14.71362914 7.06724096 -14 4 C-11.85546875 2.5390625 -11.85546875 2.5390625 -9.1875 1.625 C-8.31480469 1.30789063 -7.44210937 0.99078125 -6.54296875 0.6640625 C-4 0 -4 0 0 0 Z " fill="#F979AA" transform="translate(530,622)"/>
<path d="M0 0 C10.40911463 9.01707734 16.70671877 24.32650184 21.30322266 37.10107422 C21.98875478 38.96935343 22.73424795 40.81527793 23.48046875 42.66015625 C28.15922062 54.91707804 29.28797027 69.84811892 26.09375 82.625 C25 85 25 85 23.0625 86.375 C21 87 21 87 18 87 C17.74347656 86.15824219 17.48695313 85.31648437 17.22265625 84.44921875 C16.12005736 80.87412537 15.00038201 77.30520872 13.86865234 73.73925781 C13.26177737 71.82550369 12.65820044 69.91070198 12.05712891 67.99511719 C5.44981832 47.04792294 -2.56490023 26.90091433 -12.85546875 7.4765625 C-14 5 -14 5 -14 2 C-12.60582227 1.65980848 -11.20955342 1.32818221 -9.8125 1 C-8.64654297 0.7215625 -8.64654297 0.7215625 -7.45703125 0.4375 C-4.80147181 -0.03535001 -2.68442083 -0.35276043 0 0 Z " fill="#FA78AA" transform="translate(796,551)"/>
<path d="M0 0 C18.3218 7.38069674 34.05323635 26.46082137 42 44 C42.33984375 46.7890625 42.33984375 46.7890625 42 49 C41.34 49.66 40.68 50.32 40 51 C36.98712051 50.89239716 36.02490371 50.02579313 33.921875 47.84765625 C33.20515625 46.92855469 32.4884375 46.00945312 31.75 45.0625 C30.96109375 44.06605469 30.1721875 43.06960937 29.359375 42.04296875 C28.58078125 41.03878906 27.8021875 40.03460938 27 39 C16.44691641 25.40585606 5.20663288 15.13378038 -10 7 C-9.6875 4.625 -9.6875 4.625 -9 2 C-5.48078277 -0.34614482 -4.14293627 -0.38920044 0 0 Z " fill="#070809" transform="translate(658,171)"/>
<path d="M0 0 C3.26919346 1.10157606 5.03789305 3.07861632 7.15625 5.7265625 C7.48625 6.0565625 7.81625 6.3865625 8.15625 6.7265625 C8.73794863 11.34200739 8.7804177 14.72789417 6.28125 18.7265625 C3.7459886 21.11269087 2.81216302 21.66825912 -0.65625 21.9765625 C-5.04381428 21.63243981 -7.53477478 20.18767043 -10.45703125 16.92578125 C-12.8832911 13.07793816 -12.5720675 9.1106096 -11.84375 4.7265625 C-8.69132688 -0.45968199 -5.63143075 -0.95734323 0 0 Z " fill="#F878A9" transform="translate(758.84375,32.2734375)"/>
<path d="M0 0 C0.66 0.33 1.32 0.66 2 1 C-5.59 8.59 -13.18 16.18 -21 24 C-21.66 23.67 -22.32 23.34 -23 23 C-20.67334019 20.47293844 -18.33744884 17.954582 -16 15.4375 C-15.35160156 14.73302734 -14.70320313 14.02855469 -14.03515625 13.30273438 C-9.60671006 8.54544317 -4.97499061 4.18193609 0 0 Z " fill="#313131" transform="translate(434,1346)"/>
<path d="M0 0 C0.66 0.33 1.32 0.66 2 1 C-2.62 5.62 -7.24 10.24 -12 15 C-12.66 14.67 -13.32 14.34 -14 14 C-9.61932717 8.89662734 -5.32423478 4.12628195 0 0 Z " fill="#313131" transform="translate(747,1478)"/>
<path d="M0 0 C0.66 0.33 1.32 0.66 2 1 C-1.3 4.3 -4.6 7.6 -8 11 C-8 8 -8 8 -5.6875 5.5 C-4.800625 4.675 -3.91375 3.85 -3 3 C-2.401875 2.401875 -1.80375 1.80375 -1.1875 1.1875 C-0.795625 0.795625 -0.40375 0.40375 0 0 Z " fill="#363636" transform="translate(318,1092)"/>
<path d="M0 0 C0.66 0.33 1.32 0.66 2 1 C-0.31 3.31 -2.62 5.62 -5 8 C-5.66 7.67 -6.32 7.34 -7 7 C-4.66666667 4.66666667 -2.33333333 2.33333333 0 0 Z " fill="#323232" transform="translate(91,425)"/>
</svg>
