<?xml version="1.0" standalone="no"?>
<!DOCTYPE svg PUBLIC "-//W3C//DTD SVG 20010904//EN"
 "http://www.w3.org/TR/2001/REC-SVG-20010904/DTD/svg10.dtd">
<svg version="1.0" xmlns="http://www.w3.org/2000/svg"
 width="271.000000pt" height="167.000000pt" viewBox="0 0 271.000000 167.000000"
 preserveAspectRatio="xMidYMid meet">
<metadata>
Created by potrace 1.16, written by Peter Selinger 2001-2019
</metadata>
<g transform="translate(0.000000,167.000000) scale(0.100000,-0.100000)"
fill="#000000" stroke="none">
<path d="M1005 1619 l18 -33 -32 27 c-19 16 -45 27 -62 27 -33 0 -36 -6 -12
-32 16 -18 14 -17 -28 1 -72 33 -126 22 -87 -17 16 -16 0 -15 -52 3 -61 22
-93 20 -85 -4 5 -18 1 -19 -55 -14 -33 3 -60 3 -60 -1 0 -4 8 -18 17 -33 17
-26 17 -26 -7 -17 -14 5 -47 9 -75 9 -48 0 -50 -1 -50 -27 1 -24 -3 -28 -26
-28 -44 0 -89 -12 -89 -23 0 -6 9 -21 21 -33 l20 -22 -55 -6 c-61 -8 -71 -23
-34 -49 23 -16 23 -16 -13 -16 -64 -1 -96 -54 -37 -63 20 -3 17 -6 -22 -28
-54 -30 -64 -57 -24 -62 28 -3 28 -3 -14 -31 -48 -32 -52 -44 -16 -53 l25 -7
-25 -26 c-31 -32 -33 -51 -6 -51 26 0 25 -6 -5 -46 -32 -42 -32 -64 0 -64 22
0 24 -2 15 -26 -15 -39 -13 -77 4 -71 10 4 13 -3 12 -26 -1 -28 2 -32 25 -32
25 0 25 0 12 -35 -6 -19 -12 -41 -13 -47 0 -15 32 -17 46 -3 6 6 8 -9 6 -40
-4 -54 7 -64 36 -31 17 18 18 18 51 -5 21 -15 28 -24 17 -24 -11 0 -16 -9 -16
-31 0 -16 -11 -47 -25 -67 -44 -65 -35 -81 65 -107 120 -32 120 -32 101 4 -9
16 -5 16 77 0 48 -10 90 -15 94 -13 19 12 5 33 -30 47 -47 19 -59 33 -64 77
l-3 36 70 -9 c38 -5 104 -7 145 -4 41 2 65 2 52 0 -17 -3 -22 -11 -21 -31 1
-15 -1 -48 -5 -73 -11 -65 0 -71 118 -63 81 6 96 10 94 23 -2 9 -22 22 -48 29
-71 21 -75 25 -76 76 -1 26 1 48 5 50 3 2 28 7 54 10 48 7 48 7 41 -18 -3 -15
-3 -46 0 -71 l7 -45 95 0 c78 0 96 3 101 16 8 21 -14 34 -57 34 -49 0 -80 24
-80 61 0 25 -4 29 -27 30 -21 1 -17 4 16 11 61 13 84 30 135 99 94 125 140
257 161 458 18 185 29 237 71 333 37 83 42 132 18 166 -23 34 -54 29 -54 -8 0
-34 -14 -39 -29 -11 -11 19 -74 61 -93 61 -6 0 -8 -10 -4 -26 l7 -26 -38 30
c-21 17 -49 33 -62 37 -22 7 -23 5 -16 -25 l7 -32 -39 26 c-21 14 -53 29 -72
32 l-33 7 17 -34z"/>
<path d="M1470 1458 c-52 -71 -81 -193 -99 -420 -6 -64 -17 -144 -26 -179 -18
-68 -68 -174 -109 -228 -15 -20 -22 -39 -17 -44 12 -12 87 10 149 44 58 33
458 306 506 346 74 62 327 153 484 174 108 15 124 26 98 73 -22 42 -65 63 -95
46 -12 -6 -21 -15 -21 -20 0 -6 -74 -10 -187 -10 -285 0 -350 22 -525 175 -54
47 -104 85 -113 85 -8 0 -28 -19 -45 -42z"/>
<path d="M430 130 l0 -120 25 0 c23 0 25 3 25 49 0 62 7 81 30 81 23 0 30 -19
30 -81 0 -42 3 -49 20 -49 18 0 20 7 20 75 0 68 -2 76 -25 91 -16 10 -34 14
-50 10 -23 -6 -25 -4 -25 29 0 31 -3 35 -25 35 l-25 0 0 -120z"/>
<path d="M790 217 c0 -31 -2 -33 -36 -33 -47 0 -64 -23 -64 -86 0 -67 21 -87
94 -86 l56 1 0 118 0 119 -25 0 c-22 0 -25 -4 -25 -33z"/>
<path d="M1480 217 c0 -31 -2 -33 -35 -33 -50 0 -70 -24 -70 -83 0 -71 21 -90
96 -89 l59 1 0 118 0 119 -25 0 c-22 0 -25 -4 -25 -33z"/>
<path d="M2334 225 c-8 -13 -13 -29 -9 -35 3 -5 0 -10 -8 -10 -36 0 -61 -61
-46 -115 11 -39 34 -55 77 -55 50 0 77 31 77 85 0 41 -4 51 -33 74 -32 28 -32
28 -12 46 27 24 25 35 -5 35 -15 0 -31 -9 -41 -25z"/>
<path d="M130 120 l0 -110 70 0 c68 0 70 1 70 25 0 23 -4 25 -45 25 -41 0 -45
2 -45 25 0 23 4 25 40 25 33 0 40 3 40 20 0 17 -7 20 -40 20 -33 0 -40 3 -40
20 0 17 7 20 45 20 38 0 45 3 45 20 0 18 -7 20 -70 20 l-70 0 0 -110z"/>
<path d="M1230 120 l0 -110 65 0 c63 0 65 1 65 25 0 23 -4 25 -45 25 -41 0
-45 2 -45 25 0 23 4 25 40 25 33 0 40 3 40 20 0 17 -7 20 -40 20 -33 0 -40 3
-40 20 0 17 7 20 45 20 38 0 45 3 45 20 0 18 -7 20 -65 20 l-65 0 0 -110z"/>
<path d="M908 183 l-38 -4 0 -85 c0 -83 0 -84 25 -84 23 0 25 3 25 53 0 60 10
80 36 75 16 -3 20 -14 22 -66 3 -59 4 -62 29 -62 l26 0 -5 76 c-3 41 -9 79
-14 84 -13 13 -60 18 -106 13z"/>
<path d="M1083 180 c-25 -10 -26 -11 -17 -33 4 -11 15 -14 40 -10 22 4 34 2
34 -6 0 -6 -12 -11 -26 -11 -43 0 -64 -17 -64 -54 0 -45 15 -54 83 -54 l57 1
0 72 c0 49 -4 76 -13 84 -20 16 -69 22 -94 11z"/>
<path d="M1913 180 c-25 -10 -26 -11 -17 -33 4 -11 15 -14 40 -10 22 4 34 2
34 -6 0 -6 -13 -11 -30 -11 -31 0 -70 -30 -70 -53 0 -7 7 -22 15 -34 13 -19
25 -22 75 -21 l60 1 0 72 c0 49 -4 76 -13 84 -20 16 -69 22 -94 11z"/>
<path d="M2512 181 c-7 -4 -24 -6 -38 -3 -24 4 -24 4 -24 -82 0 -85 0 -86 25
-86 23 0 24 4 27 62 3 57 5 63 26 66 21 3 22 0 22 -62 0 -64 1 -66 25 -66 24
0 25 2 25 74 0 66 -3 77 -22 90 -25 18 -46 20 -66 7z"/>
<path d="M1560 111 c0 -89 10 -100 90 -99 l60 1 0 83 c0 83 0 84 -25 84 -24 0
-25 -3 -25 -59 0 -58 -9 -74 -37 -64 -9 3 -13 25 -13 64 0 56 -1 59 -25 59
-24 0 -25 -2 -25 -69z"/>
</g>
</svg>
